<svg width="456" height="456" xmlns="http://www.w3.org/2000/svg" version="1.1" xml:space="preserve" clip-rule="evenodd">
 <defs>
  <filter id="svg_5_blur" x="-50%" y="-50%" width="200%" height="200%">
   <feGaussianBlur in="SourceGraphic" stdDeviation="0.8"/>
  </filter>
 </defs>
 <g>
  <title>Layer 1</title>
  <text fill="#d0d3f2" x="68.74424" y="275.74772" id="svg_5" font-size="250" font-family="'Fira Code'" text-anchor="start" xml:space="preserve" stroke-width="0" font-weight="bold" filter="url(#svg_5_blur)" font-style="italic" stroke="null" transform="matrix(1.88577 0 0 1.50345 -119.136 -32.0833)">V</text>
  <g id="svg_1" stroke="null">
   <path id="svg_2" d="m238.8217,76.92767l4.14634,0a4.14634,2.98473 0 0 1 4.14634,2.98473l0,31.40532a4.14634,2.98473 0 0 1 -4.14634,2.98473l-4.14634,0a4.14634,2.98473 0 0 1 -4.14634,-2.98473l0,-31.40532a4.14634,2.98473 0 0 1 4.14634,-2.98473zm-28.8461,8.3065l4.14634,0a4.14634,2.98473 0 0 1 4.14634,2.98473l0,14.79232a4.14634,2.98473 0 0 1 -4.14634,2.98473l-4.14634,0a4.14634,2.98473 0 0 1 -4.14634,-2.98473l0,-14.79232a4.14634,2.98473 0 0 1 4.14634,-2.98473zm57.68805,0l4.14634,0a4.14634,2.98473 0 0 1 4.14634,2.98473l0,14.79232a4.14634,2.98473 0 0 1 -4.14634,2.98473l-4.14634,0a4.14634,2.98473 0 0 1 -4.14634,-2.98473l0,-14.79232a4.14634,2.98473 0 0 1 4.14634,-2.98473zm-54.9639,52.74613l0.00829,-0.01492a80.60487,58.02313 0 0 0 26.29195,3.13397c40.21951,0 72.56097,-20.83341 72.56097,-46.2633s-32.34146,-46.2633 -72.56097,-46.2633s-72.56097,20.83341 -72.56097,46.2633c0,13.16862 8.68658,25.47466 23.72951,34.21096l-0.02073,0.01791l0.86244,17.31143l21.68951,-8.39604l0,-0.00001zm-34.72561,-4.69796c-15.20463,-10.17793 -23.97414,-23.83903 -23.97414,-38.44629c0,-30.61436 38.20024,-55.21748 84.99999,-55.21748s84.99999,24.60312 84.99999,55.21748s-38.20024,55.21748 -84.99999,55.21748c-8.54976,0 -16.92951,-0.8208 -24.9361,-2.41465l-28.45219,11.14796a4.14634,2.98473 0 0 1 -6.12415,-2.48329l-1.51341,-23.02121z" fill="#c7d0da" p-id="4024" stroke="null"/>
  </g>
 </g>
</svg>