<svg xmlns="http://www.w3.org/2000/svg" xmlns:xlink="http://www.w3.org/1999/xlink" width="419" height="519" viewBox="0 0 419 519" fill="none"><g opacity="1"  transform="translate(0 0)  rotate(0)"><mask id="bg-mask-0" fill="white"><use transform="translate(0 0)  rotate(0)" xlink:href="#path_0"></use></mask><g mask="url(#bg-mask-0)" ><path id="路径 1" fill-rule="evenodd" style="fill:#8A6FE8" opacity="1" d="M375.234 209.531C409.794 167.021 398.504 105.431 398.014 102.831L372.784 107.661C372.894 108.181 382.404 160.001 355.304 193.341C340.354 211.731 316.354 221.331 284.004 221.881L284.434 247.571C324.714 246.891 355.274 234.091 375.234 209.531Z"></path><path id="路径 2" fill-rule="evenodd" style="fill:#8A6FE8" opacity="1" d="M361.823 134.249C367.143 138.679 375.053 137.959 379.493 132.639C383.933 127.319 383.213 119.409 377.893 114.969L348.023 90.0887C342.703 85.6487 334.793 86.3687 330.353 91.6887C325.913 97.0187 326.633 104.929 331.953 109.359L361.823 134.249Z"></path><g opacity="1"  transform="translate(286.5 9.5)  rotate(0)"><mask id="bg-mask-1" fill="white"><use transform="translate(0 0)  rotate(0)" xlink:href="#path_1"></use></mask><g mask="url(#bg-mask-1)" ><path id="路径 1" fill-rule="evenodd" style="fill:#A02D67" opacity="1" d="M10.1667 20.33L10.1667 81.33C10.1667 84.38 12.1967 86.42 15.2467 86.42L106.747 86.42C109.797 86.42 111.837 84.38 111.837 81.33L111.837 20.33C111.837 17.28 109.797 15.25 106.747 15.25L15.2467 15.25C12.1967 15.25 10.1667 17.79 10.1667 20.33Z"></path><path id="路径 2" fill-rule="evenodd" style="fill:#A02D67" opacity="1" d="M10.1667 20.33L10.1667 81.33C10.1667 84.38 12.1967 86.42 15.2467 86.42L106.747 86.42C109.797 86.42 111.837 84.38 111.837 81.33L111.837 20.33C111.837 17.28 109.797 15.25 106.747 15.25L15.2467 15.25C12.1967 15.25 10.1667 17.79 10.1667 20.33Z"></path><path id="路径 3" fill-rule="evenodd" style="fill:#D04C83" opacity="1" d="M10.1667 20.33L10.1667 76.25C10.1667 79.3 12.1967 81.33 15.2467 81.33L106.747 81.33C109.797 81.33 111.837 79.3 111.837 76.25L111.837 20.33C111.837 17.28 109.797 15.25 106.747 15.25L15.2467 15.25C12.1967 15.25 10.1667 17.79 10.1667 20.33Z"></path><path id="路径 4" fill-rule="evenodd" style="fill:#301196" opacity="1" d="M106.745,88.9583h-91.5c-4.06,0 -7.62,-3.56 -7.62,-7.63v-61c0,-4.06 3.56,-7.62 7.62,-7.62h91.5c4.07,0 7.63,3.56 7.63,7.62v61c0,4.07 -3.56,7.63 -7.63,7.63zM12.705,20.3283v61c0,1.53 1.02,2.55 2.54,2.55h91.5c1.53,0 2.55,-1.02 2.55,-2.55v-61c0,-1.52 -1.02,-2.54 -2.55,-2.54h-91.5c-1.52,0 -2.54,1.02 -2.54,2.54z"></path><path id="路径 5" fill-rule="evenodd" style="fill:#D86097" opacity="1" d="M106.747 18.3L15.2467 18.3C14.2367 18.3 13.2167 19.32 13.2167 20.33L13.2167 76.25C13.2167 77.27 14.2367 78.28 15.2467 78.28L106.747 78.28C107.767 78.28 108.787 77.27 108.787 76.25L108.787 20.33C108.787 19.32 107.767 18.3 106.747 18.3Z"></path><path id="路径 6" fill-rule="evenodd" style="fill:#D04C83" opacity="1" d="M20.3333 30.4967L20.3333 55.9167C20.3333 58.9667 22.3633 60.9967 25.4133 60.9967L96.5833 60.9967C99.6333 60.9967 101.663 58.9667 101.663 55.9167L101.663 30.4967C101.663 27.4467 99.6333 25.4167 96.5833 25.4167L25.4133 25.4167C22.3633 25.4167 20.3333 27.9567 20.3333 30.4967Z"></path><path id="路径 7" fill-rule="evenodd" style="fill:#D86097" opacity="1" d="M35.5833 33.04L86.4133 33.04L86.4133 30.5L35.5833 30.5L35.5833 33.04Z"></path><path id="路径 8" fill-rule="evenodd" style="fill:#723FDB" opacity="1" d="M78.7917,55.9133h-35.58c-5.59,0 -10.17,-4.57 -10.17,-10.16c0,-5.6 4.58,-10.17 10.17,-10.17h35.58c5.59,0 10.17,4.57 10.17,10.17c0,5.59 -4.58,10.16 -10.17,10.16zM38.1217,45.7533c0,3.05 2.04,5.08 5.09,5.08h35.58c3.05,0 5.08,-2.03 5.08,-5.08c0,-3.05 -2.03,-5.09 -5.08,-5.09h-35.58c-3.05,0 -5.09,2.04 -5.09,5.09z"></path><path id="路径 9" fill-rule="evenodd" style="fill:#4F2AB5" opacity="1" d="M35.5833 45.755C35.5833 49.815 39.1433 53.375 43.2133 53.375L78.7933 53.375C82.8633 53.375 86.4133 49.815 86.4133 45.755C86.4133 41.685 82.8633 38.125 78.7933 38.125L43.2133 38.125C39.1433 38.125 35.5833 41.685 35.5833 45.755Z"></path><path id="路径 10" fill-rule="evenodd" style="fill:#6ED6AB" opacity="1" d="M71.1667 45.755C71.1667 49.815 74.7267 53.375 78.7967 53.375C82.8567 53.375 86.4167 49.815 86.4167 45.755C86.4167 41.685 82.8567 38.125 78.7967 38.125C74.7267 38.125 71.1667 41.685 71.1667 45.755Z"></path><path id="路径 11" fill-rule="evenodd" style="fill:#EDC35B" opacity="1" d="M35.5833 45.755C35.5833 49.815 39.1433 53.375 43.2133 53.375C47.2733 53.375 50.8333 49.815 50.8333 45.755C50.8333 41.685 47.2733 38.125 43.2133 38.125C39.1433 38.125 35.5833 41.685 35.5833 45.755Z"></path><path id="路径 12" fill-rule="evenodd" style="fill:#A02D67" opacity="1" d="M17.79,20.3333c1.53,0 2.54,1.02 2.54,2.54c0,1.53 -1.01,2.54 -2.54,2.54c-1.52,0 -2.54,-1.01 -2.54,-2.54c0,-1.52 1.02,-2.54 2.54,-2.54zM104.21,20.3333c1.52,0 2.54,1.02 2.54,2.54c0,1.53 -1.02,2.54 -2.54,2.54c-1.53,0 -2.54,-1.01 -2.54,-2.54c0,-1.52 1.01,-2.54 2.54,-2.54zM17.79,71.1633c1.53,0 2.54,1.02 2.54,2.55c0,1.52 -1.01,2.54 -2.54,2.54c-1.52,0 -2.54,-1.02 -2.54,-2.54c0,-1.53 1.02,-2.55 2.54,-2.55zM104.21,71.1633c1.52,0 2.54,1.02 2.54,2.55c0,1.52 -1.02,2.54 -2.54,2.54c-1.53,0 -2.54,-1.02 -2.54,-2.54c0,-1.53 1.01,-2.55 2.54,-2.55zM81.33,66.0833l5.09,15.25h-50.84l5.09,-15.25z"></path><path id="路径 13" fill-rule="evenodd" style="fill:#301196" opacity="1" d="M89.975,83.8717h-57.95l6.61,-20.33h44.22zM82.855,78.7917l-3.55,-10.17h-36.6l-3.56,10.17z"></path><path id="路径 14" fill-rule="evenodd" style="fill:#301196" opacity="1" d="M35.5833 86.4133L86.4133 86.4133L86.4133 81.3333L35.5833 81.3333L35.5833 86.4133Z"></path><path id="路径 15" fill-rule="evenodd" style="fill:#301196" opacity="1" d="M86.925 99.125C86.925 95.055 83.365 91.505 79.305 91.505L45.755 91.505C44.225 91.505 43.205 90.485 43.205 88.955L43.205 86.415C43.205 84.895 42.195 83.875 40.665 83.875C39.145 83.875 38.125 84.895 38.125 86.415L38.125 88.955C38.125 93.025 41.685 96.585 45.755 96.585L79.305 96.585C80.315 96.585 81.845 97.595 81.845 99.125C81.845 100.645 80.825 101.665 79.305 101.665L50.835 101.665C49.305 101.665 48.295 102.685 48.295 104.205C48.295 105.735 49.305 106.755 50.835 106.755L79.305 106.755C83.365 106.755 86.925 103.195 86.925 99.125Z"></path></g></g><path id="路径 3" fill-rule="evenodd" style="fill:#8A6FE8" opacity="1" d="M417.921 94.2235C420.731 87.8535 417.851 80.4135 411.491 77.5835C405.121 74.7635 397.671 77.6435 394.841 84.0135L383.831 108.463L407.171 118.063L417.921 94.2235Z"></path><path id="路径 4" fill-rule="evenodd" style="fill:#8A6FE8" opacity="1" d="M401.237 69.1141C401.177 62.1541 395.497 56.5441 388.527 56.5941C381.567 56.6441 375.957 62.3341 376.007 69.2941L376.017 96.1141L401.367 105.174L401.237 69.1141Z"></path><path id="路径 5" fill-rule="evenodd" style="fill:#8A6FE8" opacity="1" d="M378.136 73.9498C376.546 67.1698 369.756 62.9598 362.966 64.5598C356.186 66.1498 351.976 72.9398 353.576 79.7198L362.036 115.48L386.456 109.07L378.136 73.9498Z"></path><path id="路径 6" fill-rule="evenodd" fill="url(#linear_0)" opacity="1" d="M408.182 115.853C408.182 101.273 396.362 89.4527 381.772 89.4527C367.192 89.4527 355.372 101.273 355.372 115.853C355.372 130.443 367.192 142.263 381.772 142.263C396.362 142.263 408.182 130.443 408.182 115.853Z"></path><path id="路径 7" fill-rule="evenodd" fill="url(#linear_1)" opacity="1" d="M222.372 301.736L199.922 315.376C220.762 349.676 222.322 389.716 221.842 407.186C221.802 408.626 235.262 409.936 248.272 406.976C248.512 384.726 245.342 339.556 222.372 301.736Z"></path><path id="路径 8" fill-rule="evenodd" style="fill:#522CD5" opacity="1" d="M214.935 512.53C214.725 515.71 217.135 518.27 220.315 518.26L262.055 518.07L242.635 406.84L221.845 406.94L214.935 512.53Z"></path><path id="路径 9" fill-rule="evenodd" fill="url(#linear_2)" opacity="1" d="M248.255 406.829L226.845 406.929C224.965 435.619 244.645 479.659 251.305 487.749C255.195 492.469 256.885 494.319 256.555 499.339L256.265 513.139C256.085 515.839 258.125 518.019 260.835 518.009L304.345 517.809C306.725 517.799 308.805 515.839 308.965 513.449L309.835 500.129C310.105 495.779 310.175 491.659 306.565 488.819C272.165 461.679 249.695 423.859 248.255 406.829Z"></path><path id="路径 10" fill-rule="evenodd" fill="url(#linear_3)" opacity="1" d="M308.885 491.715L254.635 491.965C256.135 494.165 256.765 496.095 256.565 499.315L256.275 513.125C256.095 515.825 258.145 518.015 260.845 517.995L304.335 517.795C306.725 517.785 308.805 515.825 308.965 513.445L309.825 500.125C310.025 497.085 310.075 494.175 308.885 491.715Z"></path><path id="路径 11" fill-rule="evenodd" fill="url(#linear_4)" opacity="1" d="M159.989 407.433C159.349 389.973 160.549 349.923 181.069 315.423L158.489 301.993C135.859 340.023 133.099 385.223 133.549 407.473C146.579 410.323 160.039 408.883 159.989 407.433Z"></path><path id="路径 12" fill-rule="evenodd" fill="url(#linear_5)" opacity="1" d="M110.816 514.156C110.826 516.726 112.926 518.806 115.496 518.796L116.776 518.786L177.876 518.506L179.156 518.496C181.716 518.486 183.806 516.376 183.796 513.816L183.676 496.836C183.466 493.646 183.286 490.196 181.716 486.426C161.816 433.516 159.996 407.246 159.996 407.246L133.516 407.366C133.516 407.366 131.886 434.136 112.456 487.226C111.206 491.576 110.766 494.186 110.796 497.156L110.816 514.156Z"></path><path id="路径 13" fill-rule="evenodd" fill="url(#linear_6)" opacity="1" d="M110.848 514.152C110.858 515.432 111.388 516.602 112.228 517.432C113.078 518.272 114.248 518.792 115.528 518.782L116.798 518.772L177.898 518.492L179.178 518.482C180.128 518.472 181.028 518.172 181.768 517.672C183.008 516.822 183.828 515.412 183.808 513.802L183.698 496.822C183.668 496.332 183.618 495.812 183.588 495.312C183.338 494.172 182.558 492.372 180.208 492.282L114.878 492.582C111.638 492.602 110.968 494.262 110.828 495.742C110.808 496.202 110.798 496.672 110.798 497.152L110.848 514.152Z"></path><path id="路径 14" fill-rule="evenodd" fill="url(#linear_7)" opacity="1" d="M318.005 181.778L326.455 181.738L326.655 181.578C314.265 115.748 256.325 66.0982 186.945 66.4182C108.795 66.7682 45.725 130.428 46.075 208.578C46.425 286.728 110.075 349.798 188.235 349.448C249.905 349.168 302.175 309.478 321.305 254.338C321.875 251.998 321.795 247.808 314.975 246.348C324.165 210.408 318.005 181.778 318.005 181.778Z"></path><path id="路径 15" fill-rule="evenodd" style="fill:#D8CFF7" opacity="1" d="M65.877 280.145C71.397 289.425 77.947 298.015 85.367 305.765L290.977 304.825C298.337 297.005 304.797 288.365 310.237 279.035L65.877 280.145Z"></path><path id="路径 21" fill-rule="evenodd" fill="url(#linear_8)" opacity="1" d="M318.308 181.798L171.488 182.458C171.488 182.458 162.228 181.558 162.268 190.018C162.308 198.458 162.758 222.338 162.878 248.748C162.898 254.168 167.368 256.778 170.868 256.748C170.878 256.748 311.618 252.208 315.278 246.338C324.358 210.838 318.458 182.488 318.308 181.798Z"></path><path id="路径 22" fill-rule="evenodd" style="fill:#A08BE8" opacity="1" d="M293.615 246.502C293.615 246.502 270.925 228.912 266.865 225.442C262.815 221.972 258.955 222.172 254.575 225.502C250.185 228.822 227.685 246.802 227.685 246.802L293.615 246.502Z"></path><path id="路径 23" fill-rule="evenodd" style="fill:#512BD4" opacity="1" d="M315.276 246.351C315.286 246.301 170.926 246.891 170.926 246.891C167.566 246.901 163.236 244.921 162.846 241.671C162.856 244.001 162.876 246.371 162.886 248.761C162.906 253.681 166.586 256.271 169.876 256.701C170.206 256.731 170.546 256.771 170.876 256.771L180.746 256.731L320.746 256.141C320.746 256.141 324.946 248.411 315.276 246.351Z"></path><path id="路径 24" fill-rule="evenodd" style="fill:#512BD4" opacity="1" d="M217.107 214.386C216.897 204.116 211.787 195.876 205.677 195.996C199.567 196.116 194.777 204.546 194.977 214.826C195.177 225.096 200.287 233.336 206.397 233.216C212.507 233.096 217.307 224.666 217.107 214.386Z"></path><path id="路径 25" fill-rule="evenodd" style="fill:#512BD4" opacity="1" d="M295.376 195.541C289.266 195.481 284.226 203.761 284.116 214.041C284.006 224.311 288.876 232.701 294.986 232.761C301.096 232.831 306.146 224.541 306.246 214.271C306.356 203.991 301.486 195.601 295.376 195.541Z"></path><path id="路径 26" fill-rule="evenodd" style="fill:#8065E0" opacity="1" d="M205.977 219.926C208.747 222.666 212.667 223.516 216.157 222.516C216.807 220.036 217.167 217.296 217.107 214.386C217.017 209.736 215.907 205.496 214.157 202.266C211.187 202.016 208.147 203.026 205.907 205.296C201.877 209.346 201.907 215.906 205.977 219.926Z"></path><path id="路径 27" fill-rule="evenodd" style="fill:#8065E0" opacity="1" d="M295.058 218.917C297.838 221.677 301.788 222.527 305.298 221.487C305.888 219.257 306.228 216.807 306.258 214.237C306.308 209.207 305.168 204.627 303.258 201.257C300.298 200.997 297.258 202.017 294.998 204.287C290.968 208.337 291.008 214.887 295.058 218.917Z"></path><path id="路径 28" fill-rule="evenodd" fill="url(#linear_9)" opacity="1" d="M36.7148 349.18C36.5748 348.73 23.0948 303.94 43.3548 273.2C54.4648 256.35 74.3448 246.27 102.445 243.28L99.6648 217.15C63.3048 221.03 36.9448 235.08 21.3248 258.9C-5.72517 300.14 10.9148 354.72 11.6348 357.02L36.7148 349.18Z"></path><path id="路径 29" fill-rule="evenodd" fill="url(#linear_10)" opacity="1" d="M121.133 226.818C121.133 212.458 109.503 200.828 95.1528 200.828C80.7928 200.828 69.1628 212.458 69.1628 226.818C69.1628 241.168 80.7928 252.798 95.1528 252.798C109.503 252.798 121.133 241.168 121.133 226.818Z"></path><path id="路径 30" fill-rule="evenodd" style="fill:#8A6FE8" opacity="1" d="M33.4722 329.307C26.5922 328.397 20.2922 333.217 19.3722 340.087C18.4622 346.957 23.2822 353.257 30.1522 354.177L68.6922 359.307C75.5622 360.217 81.8722 355.397 82.7922 348.527C83.7022 341.657 78.8722 335.347 72.0122 334.437L33.4722 329.307Z"></path><g opacity="1"  transform="translate(4.5 345.5)  rotate(0)"><mask id="bg-mask-2" fill="white"><use transform="translate(0 0)  rotate(0)" xlink:href="#path_2"></use></mask><g mask="url(#bg-mask-2)" ><path id="路径 1" fill-rule="evenodd" style="fill:#65D0E0" opacity="1" d="M38.4375 39.4188L38.4375 105.609C38.4375 108.899 41.1875 111.559 44.5875 111.559L93.7875 111.559C97.1875 111.559 99.9375 108.899 99.9375 105.609L99.9375 39.4188C99.9375 36.1287 97.1875 33.4688 93.7875 33.4688L44.5875 33.4688C41.1875 33.4688 38.4375 36.1287 38.4375 39.4188Z"></path><path id="路径 2" fill-rule="evenodd" style="fill:#8065E0" opacity="1" d="M30.7525 14.875C26.5025 14.875 23.0625 18.205 23.0625 22.315L23.0625 104.125C23.0625 108.225 26.5025 111.565 30.7525 111.565L92.2525 111.565C96.4925 111.565 99.9325 108.225 99.9325 104.125L99.9325 22.315C99.9325 18.205 96.4925 14.875 92.2525 14.875L69.1525 14.875L69.1525 22.315L92.2525 22.315L92.2525 104.125L30.7525 104.125L30.7525 22.315L52.5425 22.315L52.5425 14.875L30.7525 14.875Z"></path><path id="路径 3" fill-rule="evenodd" style="fill:#8A6FE8" opacity="1" d="M65.3387,18.5975c0,-2.06 -1.72,-3.72 -3.84,-3.72c-2.12,0 -3.84,1.66 -3.84,3.72c0,2.05 1.72,3.71 3.84,3.71c2.12,0 3.84,-1.66 3.84,-3.71zM61.4987,29.7475c-6.36,0 -11.5299,-5 -11.5299,-11.15c0,-6.16 5.1699,-11.16 11.5299,-11.16c6.37,0 11.53,5 11.53,11.16c0,6.15 -5.16,11.15 -11.53,11.15z"></path><path id="路径 4" fill-rule="evenodd" style="fill:#5C4A9B" opacity="1" d="M49.9712,29.7525c-2.12,0 -3.8499,-1.67 -3.8499,-3.72c0,-2.05 1.7299,-3.72 3.8499,-3.72h23.06c2.12,0 3.84,1.67 3.84,3.72c0,2.05 -1.72,3.72 -3.84,3.72zM46.1213,59.5025c-2.12,0 -3.8401,-1.67 -3.8401,-3.72c0,-2.05 1.7201,-3.72 3.8401,-3.72h30.7499c2.1301,0 3.85,1.67 3.85,3.72c0,2.05 -1.7199,3.72 -3.85,3.72zM46.1213,79.0225c-2.12,0 -3.8401,-1.67 -3.8401,-3.72c0,-2.05 1.7201,-3.72 3.8401,-3.72h30.7499c2.1301,0 3.85,1.67 3.85,3.72c0,2.05 -1.7199,3.72 -3.85,3.72z"></path></g></g><path id="路径 31" fill-rule="evenodd" style="fill:#8A6FE8" opacity="1" d="M7.35535 393.081C8.36535 399.971 14.7654 404.731 21.6654 403.721C28.5554 402.711 33.3154 396.311 32.3154 389.411L28.5954 362.861L3.73535 367.181L7.35535 393.081Z"></path><path id="路径 32" fill-rule="evenodd" style="fill:#8A6FE8" opacity="1" d="M34.8494 405.424C38.6094 411.294 46.4094 413.004 52.2694 409.244C58.1394 405.494 59.8494 397.694 56.0994 391.824L41.7994 369.144L15.5194 374.984L34.8494 405.424Z"></path><path id="路径 33" fill-rule="evenodd" style="fill:#8A6FE8" opacity="1" d="M51.8011 389.017C56.7711 393.907 64.7511 393.847 69.6411 388.877C74.5311 383.917 74.4711 375.927 69.5111 371.037L43.2911 345.297L26.0511 363.737L51.8011 389.017Z"></path><path id="路径 34" fill-rule="evenodd" fill="url(#linear_11)" opacity="1" d="M52.81 355.504C52.81 340.924 40.99 329.104 26.4 329.104C11.82 329.104 0 340.924 0 355.504C0 370.094 11.82 381.914 26.4 381.914C40.99 381.914 52.81 370.094 52.81 355.504Z"></path><path id="路径 35" fill-rule="evenodd" style="fill:#8A6FE8" opacity="1" d="M177.889 36.4178L158.559 38.5378L157.819 66.5878L184.729 63.6278L177.889 36.4178Z"></path><path id="路径 36" fill-rule="evenodd" style="fill:#D8CFF7" opacity="1" d="M185.068 18.8976C182.938 8.4576 172.758 1.7276 162.318 3.8476C151.878 5.9776 145.148 16.1576 147.268 26.5976C149.398 37.0376 159.578 43.7776 170.018 41.6476C180.458 39.5176 187.188 29.3376 185.068 18.8976Z"></path><path id="路径 37" fill-rule="evenodd" fill="url(#linear_12)" opacity="1" d="M198.685 76.9045C195.855 64.2845 183.925 55.5345 170.775 56.9945C157.625 58.4345 147.885 69.5745 147.865 82.4945C147.865 83.7245 148.945 84.6645 150.165 84.5345L196.885 79.3845C198.105 79.2445 198.945 78.0945 198.685 76.9045Z"></path><g opacity="1"  transform="translate(191.5 288.5)  rotate(0)"><mask id="bg-mask-3" fill="white"><use transform="translate(0 0)  rotate(0)" xlink:href="#path_3"></use></mask><g mask="url(#bg-mask-3)" ><path id="路径 1" fill-rule="evenodd" style="fill:#5C4A9B" opacity="1" d="M75.745,0c6.97,0 12.63,0.95 12.63,2.12v12.75c0,1.18 -5.66,2.13 -12.63,2.13h-50.5c-6.96,0 -12.62,-0.95 -12.62,-2.13v-10.18c0,-0.56 1.32,-1.1 3.69,-1.5l15.25,-2.57c2.36,-0.4 5.58,-0.62 8.93,-0.62zM39.455,2.12c-2.63,0 -4.74,0.36 -4.74,0.8v1.6c0,0.44 2.11,0.79 4.74,0.79c2.62,0 4.73,-0.35 4.73,-0.79v-1.6c0,-0.44 -2.11,-0.8 -4.73,-0.8zM55.235,2.12c-2.62,0 -4.74,0.36 -4.74,0.8v1.6c0,0.44 2.12,0.79 4.74,0.79c2.62,0 4.73,-0.35 4.73,-0.79v-1.6c0,-0.44 -2.11,-0.8 -4.73,-0.8zM71.015,2.12c-2.62,0 -4.73,0.36 -4.73,0.8v1.6c0,0.44 2.11,0.79 4.73,0.79c2.62,0 4.73,-0.35 4.73,-0.79v-1.6c0,-0.44 -2.11,-0.8 -4.73,-0.8z"></path></g></g></g></g><defs><rect id="path_0" x="0" y="0" width="419" height="519" /><rect id="path_1" x="0" y="0" width="122" height="122" /><radialGradient id="linear_0" cx="50.43079778068136%" cy="26.519126728184773%" fx="50.43079778068136%" fy="26.519126728184773%" r="0.5000246170160392" gradientTransform="translate(0.5043079778068136 0.2651912672818477) scale(0.999986744683672 1) rotate(360) scale(1 1) translate(-0.5043079778068136 -0.2651912672818477)" ><stop offset="0" stop-color="#8065E0" stop-opacity="1" /><stop offset="1" stop-color="#512BD4" stop-opacity="1" /></radialGradient><linearGradient id="linear_1" x1="30.020092132467923%" y1="1.6314841978435504%" x2="76.05834460509544%" y2="100.7006990363103%" gradientUnits="objectBoundingBox"><stop offset="0" stop-color="#522CD5" stop-opacity="1" /><stop offset="0.4397" stop-color="#8A6FE8" stop-opacity="1" /></linearGradient><linearGradient id="linear_2" x1="5.956924973364436%" y1="-2.4149366368325516%" x2="85.41207133384489%" y2="103.63001279672608%" gradientUnits="objectBoundingBox"><stop offset="0" stop-color="#522CD5" stop-opacity="1" /><stop offset="0.4397" stop-color="#8A6FE8" stop-opacity="1" /></linearGradient><radialGradient id="linear_3" cx="47.599999894524856%" cy="-84.338196171186%" fx="47.599999894524856%" fy="-84.338196171186%" r="0.8288538951381106" gradientTransform="translate(0.4759999989452486 -0.84338196171186) scale(0.4751530430163732 1) rotate(359.73925799999824) scale(1 1) translate(-0.4759999989452486 0.84338196171186)" ><stop offset="0.034" stop-color="#522CD5" stop-opacity="1" /><stop offset="0.9955" stop-color="#8A6FE8" stop-opacity="1" /></radialGradient><linearGradient id="linear_4" x1="68.43802082940051%" y1="1.3984935856754916%" x2="23.660041054858294%" y2="100.56083783352618%" gradientUnits="objectBoundingBox"><stop offset="0" stop-color="#522CD5" stop-opacity="1" /><stop offset="0.4397" stop-color="#8A6FE8" stop-opacity="1" /></linearGradient><linearGradient id="linear_5" x1="49.23945772223492%" y1="0.05020303383806864%" x2="49.934018618002355%" y2="99.85114485560582%" gradientUnits="objectBoundingBox"><stop offset="0" stop-color="#522CD5" stop-opacity="1" /><stop offset="0.4397" stop-color="#8A6FE8" stop-opacity="1" /></linearGradient><radialGradient id="linear_6" cx="51.813932581655834%" cy="-83.99568798583452%" fx="51.813932581655834%" fy="-83.99568798583452%" r="0.6882279038398926" gradientTransform="translate(0.5181393258165583 -0.8399568798583452) scale(0.3629409005772349 1) rotate(179.73900000000145) scale(1 1) translate(-0.5181393258165583 0.8399568798583452)" ><stop offset="0.034" stop-color="#522CD5" stop-opacity="1" /><stop offset="0.9955" stop-color="#8A6FE8" stop-opacity="1" /></radialGradient><radialGradient id="linear_7" cx="61.7090932332292%" cy="30.918896233080716%" fx="61.7090932332292%" fy="30.918896233080716%" r="0.5022969720998681" gradientTransform="translate(0.617090932332292 0.30918896233080717) scale(1.0087398901282243 1) rotate(179.73900000000145) scale(1 1) translate(-0.617090932332292 -0.30918896233080717)" ><stop offset="0.4744" stop-color="#A08BE8" stop-opacity="1" /><stop offset="0.8618" stop-color="#8065E0" stop-opacity="1" /></radialGradient><radialGradient id="linear_8" cx="96.54076384922962%" cy="-30.765889860728844%" fx="96.54076384922962%" fy="-30.765889860728844%" r="0.9240633111117245" gradientTransform="translate(0.9654076384922962 -0.30765889860728846) scale(0.4742043524693281 1) rotate(179.73899999999867) scale(1 1) translate(-0.9654076384922962 0.30765889860728846)" ><stop offset="0.0933" stop-color="#E1DFDD" stop-opacity="1" /><stop offset="0.6573" stop-color="#FFFFFF" stop-opacity="1" /></radialGradient><linearGradient id="linear_9" x1="50.00278601820589%" y1="0.006434684378721307%" x2="51.00278601820589%" y2="100.00357482465485%" gradientUnits="objectBoundingBox"><stop offset="0.3344" stop-color="#9780E6" stop-opacity="1" /><stop offset="0.8488" stop-color="#8A6FE8" stop-opacity="1" /></linearGradient><radialGradient id="linear_10" cx="40.763686598350716%" cy="33.17620348635856%" fx="40.763686598350716%" fy="33.17620348635856%" r="0.5001019737114071" gradientTransform="translate(0.4076368659835072 0.33176203486358563) scale(0.9999961519369224 1) rotate(359.73925800000103) scale(1 1) translate(-0.4076368659835072 -0.33176203486358563)" ><stop offset="0" stop-color="#8065E0" stop-opacity="1" /><stop offset="1" stop-color="#512BD4" stop-opacity="1" /></radialGradient><rect id="path_2" x="0" y="0" width="123" height="119" /><radialGradient id="linear_11" cx="48.86514696469893%" cy="30.182926829268336%" fx="48.86514696469893%" fy="30.182926829268336%" r="0.5001192987505823" gradientTransform="translate(0.4886514696469893 0.30182926829268336) scale(0.9999886382142301 1) rotate(360) scale(1 1) translate(-0.4886514696469893 -0.30182926829268336)" ><stop offset="0" stop-color="#8065E0" stop-opacity="1" /><stop offset="1" stop-color="#512BD4" stop-opacity="1" /></radialGradient><radialGradient id="linear_12" cx="41.77134151467713%" cy="38.00838672332705%" fx="41.77134151467713%" fy="38.00838672332705%" r="0.5359651161913144" gradientTransform="translate(0.4177134151467713 0.3800838672332705) scale(0.5447260101644797 1) rotate(327.7975) scale(1 1) translate(-0.4177134151467713 -0.3800838672332705)" ><stop offset="0" stop-color="#8065E0" stop-opacity="1" /><stop offset="1" stop-color="#512BD4" stop-opacity="1" /></radialGradient><rect id="path_3" x="0" y="0" width="101" height="17" /></defs></svg>