<svg xmlns="http://www.w3.org/2000/svg" xmlns:xlink="http://www.w3.org/1999/xlink" width="419" height="519" viewBox="0 0 419 519" fill="none"><g opacity="1"  transform="translate(0 0)  rotate(0)"><mask id="bg-mask-0" fill="white"><use transform="translate(0 0)  rotate(0)" xlink:href="#path_0"></use></mask><g mask="url(#bg-mask-0)" ><path id="路径 7" fill-rule="evenodd" fill="url(#linear_0)" opacity="1" d="M222.372 301.736L199.922 315.376C220.762 349.676 222.322 389.716 221.842 407.186C221.802 408.626 235.262 409.936 248.272 406.976C248.512 384.726 245.342 339.556 222.372 301.736Z"></path><path id="路径 8" fill-rule="evenodd" style="fill:#522CD5" opacity="1" d="M214.935 512.53C214.725 515.71 217.135 518.27 220.315 518.26L262.055 518.07L242.635 406.84L221.845 406.94L214.935 512.53Z"></path><path id="路径 9" fill-rule="evenodd" fill="url(#linear_1)" opacity="1" d="M248.255 406.829L226.845 406.929C224.965 435.619 244.645 479.659 251.305 487.749C255.195 492.469 256.885 494.319 256.555 499.339L256.265 513.139C256.085 515.839 258.125 518.019 260.835 518.009L304.345 517.809C306.725 517.799 308.805 515.839 308.965 513.449L309.835 500.129C310.105 495.779 310.175 491.659 306.565 488.819C272.165 461.679 249.695 423.859 248.255 406.829Z"></path><path id="路径 10" fill-rule="evenodd" fill="url(#linear_2)" opacity="1" d="M308.885 491.715L254.635 491.965C256.135 494.165 256.765 496.095 256.565 499.315L256.275 513.125C256.095 515.825 258.145 518.015 260.845 517.995L304.335 517.795C306.725 517.785 308.805 515.825 308.965 513.445L309.825 500.125C310.025 497.085 310.075 494.175 308.885 491.715Z"></path><path id="路径 11" fill-rule="evenodd" fill="url(#linear_3)" opacity="1" d="M159.989 407.433C159.349 389.973 160.549 349.923 181.069 315.423L158.489 301.993C135.859 340.023 133.099 385.223 133.549 407.473C146.579 410.323 160.039 408.883 159.989 407.433Z"></path><path id="路径 12" fill-rule="evenodd" fill="url(#linear_4)" opacity="1" d="M110.816 514.156C110.826 516.726 112.926 518.806 115.496 518.796L116.776 518.786L177.876 518.506L179.156 518.496C181.716 518.486 183.806 516.376 183.796 513.816L183.676 496.836C183.466 493.646 183.286 490.196 181.716 486.426C161.816 433.516 159.996 407.246 159.996 407.246L133.516 407.366C133.516 407.366 131.886 434.136 112.456 487.226C111.206 491.576 110.766 494.186 110.796 497.156L110.816 514.156Z"></path><path id="路径 13" fill-rule="evenodd" fill="url(#linear_5)" opacity="1" d="M110.848 514.152C110.858 515.432 111.388 516.602 112.228 517.432C113.078 518.272 114.248 518.792 115.528 518.782L116.798 518.772L177.898 518.492L179.178 518.482C180.128 518.472 181.028 518.172 181.768 517.672C183.008 516.822 183.828 515.412 183.808 513.802L183.698 496.822C183.668 496.332 183.618 495.812 183.588 495.312C183.338 494.172 182.558 492.372 180.208 492.282L114.878 492.582C111.638 492.602 110.968 494.262 110.828 495.742C110.808 496.202 110.798 496.672 110.798 497.152L110.848 514.152Z"></path><path id="路径 14" fill-rule="evenodd" fill="url(#linear_6)" opacity="1" d="M318.005 181.778L326.455 181.738L326.655 181.578C314.265 115.748 256.325 66.0982 186.945 66.4182C108.795 66.7682 45.725 130.428 46.075 208.578C46.425 286.728 110.075 349.798 188.235 349.448C249.905 349.168 302.175 309.478 321.305 254.338C321.875 251.998 321.795 247.808 314.975 246.348C324.165 210.408 318.005 181.778 318.005 181.778Z"></path><path id="路径 15" fill-rule="evenodd" style="fill:#D8CFF7" opacity="1" d="M65.877 280.145C71.397 289.425 77.947 298.015 85.367 305.765L290.977 304.825C298.337 297.005 304.797 288.365 310.237 279.035L65.877 280.145Z"></path><path id="路径 21" fill-rule="evenodd" fill="url(#linear_7)" opacity="1" d="M318.308 181.798L171.488 182.458C171.488 182.458 162.228 181.558 162.268 190.018C162.308 198.458 162.758 222.338 162.878 248.748C162.898 254.168 167.368 256.778 170.868 256.748C170.878 256.748 311.618 252.208 315.278 246.338C324.358 210.838 318.458 182.488 318.308 181.798Z"></path><path id="路径 22" fill-rule="evenodd" style="fill:#A08BE8" opacity="1" d="M293.615 246.502C293.615 246.502 270.925 228.912 266.865 225.442C262.815 221.972 258.955 222.172 254.575 225.502C250.185 228.822 227.685 246.802 227.685 246.802L293.615 246.502Z"></path><path id="路径 23" fill-rule="evenodd" style="fill:#512BD4" opacity="1" d="M315.276 246.351C315.286 246.301 170.926 246.891 170.926 246.891C167.566 246.901 163.236 244.921 162.846 241.671C162.856 244.001 162.876 246.371 162.886 248.761C162.906 253.681 166.586 256.271 169.876 256.701C170.206 256.731 170.546 256.771 170.876 256.771L180.746 256.731L320.746 256.141C320.746 256.141 324.946 248.411 315.276 246.351Z"></path><path id="路径 24" fill-rule="evenodd" style="fill:#512BD4" opacity="1" d="M217.107 214.386C216.897 204.116 211.787 195.876 205.677 195.996C199.567 196.116 194.777 204.546 194.977 214.826C195.177 225.096 200.287 233.336 206.397 233.216C212.507 233.096 217.307 224.666 217.107 214.386Z"></path><path id="路径 25" fill-rule="evenodd" style="fill:#512BD4" opacity="1" d="M295.376 195.541C289.266 195.481 284.226 203.761 284.116 214.041C284.006 224.311 288.876 232.701 294.986 232.761C301.096 232.831 306.146 224.541 306.246 214.271C306.356 203.991 301.486 195.601 295.376 195.541Z"></path><path id="路径 26" fill-rule="evenodd" style="fill:#8065E0" opacity="1" d="M205.977 219.926C208.747 222.666 212.667 223.516 216.157 222.516C216.807 220.036 217.167 217.296 217.107 214.386C217.017 209.736 215.907 205.496 214.157 202.266C211.187 202.016 208.147 203.026 205.907 205.296C201.877 209.346 201.907 215.906 205.977 219.926Z"></path><path id="路径 27" fill-rule="evenodd" style="fill:#8065E0" opacity="1" d="M295.058 218.917C297.838 221.677 301.788 222.527 305.298 221.487C305.888 219.257 306.228 216.807 306.258 214.237C306.308 209.207 305.168 204.627 303.258 201.257C300.298 200.997 297.258 202.017 294.998 204.287C290.968 208.337 291.008 214.887 295.058 218.917Z"></path><path id="路径 28" fill-rule="evenodd" fill="url(#linear_8)" opacity="1" d="M36.7148 349.18C36.5748 348.73 23.0948 303.94 43.3548 273.2C54.4648 256.35 74.3448 246.27 102.445 243.28L99.6648 217.15C63.3048 221.03 36.9448 235.08 21.3248 258.9C-5.72517 300.14 10.9148 354.72 11.6348 357.02L36.7148 349.18Z"></path><path id="路径 29" fill-rule="evenodd" fill="url(#linear_9)" opacity="1" d="M121.133 226.818C121.133 212.458 109.503 200.828 95.1528 200.828C80.7928 200.828 69.1628 212.458 69.1628 226.818C69.1628 241.168 80.7928 252.798 95.1528 252.798C109.503 252.798 121.133 241.168 121.133 226.818Z"></path><path id="路径 30" fill-rule="evenodd" style="fill:#8A6FE8" opacity="1" d="M33.4722 329.307C26.5922 328.397 20.2922 333.217 19.3722 340.087C18.4622 346.957 23.2822 353.257 30.1522 354.177L68.6922 359.307C75.5622 360.217 81.8722 355.397 82.7922 348.527C83.7022 341.657 78.8722 335.347 72.0122 334.437L33.4722 329.307Z"></path><g opacity="1"  transform="translate(4.5 345.5)  rotate(0)"><mask id="bg-mask-1" fill="white"><use transform="translate(0 0)  rotate(0)" xlink:href="#path_1"></use></mask><g mask="url(#bg-mask-1)" ><path id="路径 1" fill-rule="evenodd" style="fill:#65D0E0" opacity="1" d="M38.4375 39.4188L38.4375 105.609C38.4375 108.899 41.1875 111.559 44.5875 111.559L93.7875 111.559C97.1875 111.559 99.9375 108.899 99.9375 105.609L99.9375 39.4188C99.9375 36.1287 97.1875 33.4688 93.7875 33.4688L44.5875 33.4688C41.1875 33.4688 38.4375 36.1287 38.4375 39.4188Z"></path><path id="路径 2" fill-rule="evenodd" style="fill:#8065E0" opacity="1" d="M30.7525 14.875C26.5025 14.875 23.0625 18.205 23.0625 22.315L23.0625 104.125C23.0625 108.225 26.5025 111.565 30.7525 111.565L92.2525 111.565C96.4925 111.565 99.9325 108.225 99.9325 104.125L99.9325 22.315C99.9325 18.205 96.4925 14.875 92.2525 14.875L69.1525 14.875L69.1525 22.315L92.2525 22.315L92.2525 104.125L30.7525 104.125L30.7525 22.315L52.5425 22.315L52.5425 14.875L30.7525 14.875Z"></path><path id="路径 3" fill-rule="evenodd" style="fill:#8A6FE8" opacity="1" d="M65.3387,18.5975c0,-2.06 -1.72,-3.72 -3.84,-3.72c-2.12,0 -3.84,1.66 -3.84,3.72c0,2.05 1.72,3.71 3.84,3.71c2.12,0 3.84,-1.66 3.84,-3.71zM61.4987,29.7475c-6.36,0 -11.5299,-5 -11.5299,-11.15c0,-6.16 5.1699,-11.16 11.5299,-11.16c6.37,0 11.53,5 11.53,11.16c0,6.15 -5.16,11.15 -11.53,11.15z"></path><path id="路径 4" fill-rule="evenodd" style="fill:#5C4A9B" opacity="1" d="M49.9712,29.7525c-2.12,0 -3.8499,-1.67 -3.8499,-3.72c0,-2.05 1.7299,-3.72 3.8499,-3.72h23.06c2.12,0 3.84,1.67 3.84,3.72c0,2.05 -1.72,3.72 -3.84,3.72zM46.1213,59.5025c-2.12,0 -3.8401,-1.67 -3.8401,-3.72c0,-2.05 1.7201,-3.72 3.8401,-3.72h30.7499c2.1301,0 3.85,1.67 3.85,3.72c0,2.05 -1.7199,3.72 -3.85,3.72zM46.1213,79.0225c-2.12,0 -3.8401,-1.67 -3.8401,-3.72c0,-2.05 1.7201,-3.72 3.8401,-3.72h30.7499c2.1301,0 3.85,1.67 3.85,3.72c0,2.05 -1.7199,3.72 -3.85,3.72z"></path></g></g><path id="路径 31" fill-rule="evenodd" style="fill:#8A6FE8" opacity="1" d="M7.35535 393.081C8.36535 399.971 14.7654 404.731 21.6654 403.721C28.5554 402.711 33.3154 396.311 32.3154 389.411L28.5954 362.861L3.73535 367.181L7.35535 393.081Z"></path><path id="路径 32" fill-rule="evenodd" style="fill:#8A6FE8" opacity="1" d="M34.8494 405.424C38.6094 411.294 46.4094 413.004 52.2694 409.244C58.1394 405.494 59.8494 397.694 56.0994 391.824L41.7994 369.144L15.5194 374.984L34.8494 405.424Z"></path><path id="路径 33" fill-rule="evenodd" style="fill:#8A6FE8" opacity="1" d="M51.8011 389.017C56.7711 393.907 64.7511 393.847 69.6411 388.877C74.5311 383.917 74.4711 375.927 69.5111 371.037L43.2911 345.297L26.0511 363.737L51.8011 389.017Z"></path><path id="路径 34" fill-rule="evenodd" fill="url(#linear_10)" opacity="1" d="M52.81 355.504C52.81 340.924 40.99 329.104 26.4 329.104C11.82 329.104 0 340.924 0 355.504C0 370.094 11.82 381.914 26.4 381.914C40.99 381.914 52.81 370.094 52.81 355.504Z"></path><path id="路径 35" fill-rule="evenodd" style="fill:#8A6FE8" opacity="1" d="M177.889 36.4178L158.559 38.5378L157.819 66.5878L184.729 63.6278L177.889 36.4178Z"></path><path id="路径 36" fill-rule="evenodd" style="fill:#D8CFF7" opacity="1" d="M185.068 18.8976C182.938 8.4576 172.758 1.7276 162.318 3.8476C151.878 5.9776 145.148 16.1576 147.268 26.5976C149.398 37.0376 159.578 43.7776 170.018 41.6476C180.458 39.5176 187.188 29.3376 185.068 18.8976Z"></path><path id="路径 37" fill-rule="evenodd" fill="url(#linear_11)" opacity="1" d="M198.685 76.9045C195.855 64.2845 183.925 55.5345 170.775 56.9945C157.625 58.4345 147.885 69.5745 147.865 82.4945C147.865 83.7245 148.945 84.6645 150.165 84.5345L196.885 79.3845C198.105 79.2445 198.945 78.0945 198.685 76.9045Z"></path><g opacity="1"  transform="translate(191.5 288.5)  rotate(0)"><mask id="bg-mask-2" fill="white"><use transform="translate(0 0)  rotate(0)" xlink:href="#path_2"></use></mask><g mask="url(#bg-mask-2)" ><path id="路径 1" fill-rule="evenodd" style="fill:#5C4A9B" opacity="1" d="M75.745,0c6.97,0 12.63,0.95 12.63,2.12v12.75c0,1.18 -5.66,2.13 -12.63,2.13h-50.5c-6.96,0 -12.62,-0.95 -12.62,-2.13v-10.18c0,-0.56 1.32,-1.1 3.69,-1.5l15.25,-2.57c2.36,-0.4 5.58,-0.62 8.93,-0.62zM39.455,2.12c-2.63,0 -4.74,0.36 -4.74,0.8v1.6c0,0.44 2.11,0.79 4.74,0.79c2.62,0 4.73,-0.35 4.73,-0.79v-1.6c0,-0.44 -2.11,-0.8 -4.73,-0.8zM55.235,2.12c-2.62,0 -4.74,0.36 -4.74,0.8v1.6c0,0.44 2.12,0.79 4.74,0.79c2.62,0 4.73,-0.35 4.73,-0.79v-1.6c0,-0.44 -2.11,-0.8 -4.73,-0.8zM71.015,2.12c-2.62,0 -4.73,0.36 -4.73,0.8v1.6c0,0.44 2.11,0.79 4.73,0.79c2.62,0 4.73,-0.35 4.73,-0.79v-1.6c0,-0.44 -2.11,-0.8 -4.73,-0.8z"></path></g></g><path id="路径 1" fill-rule="evenodd" style="fill:#8A6FE8" opacity="1" d="M383.95 288.54C418.51 331.05 293.21 380.4 292.72 383L264.11 373L251.5 370.59C251.61 370.06 383.21 321.88 356.11 288.54C341.16 270.14 325.08 276.73 292.72 276.19L292.72 259C333.01 259.67 363.99 263.97 383.95 288.54Z"></path><path id="路径 2" fill-rule="evenodd" style="fill:#8A6FE8" opacity="1" d="M242.493 352.512C247.813 348.082 255.723 348.802 260.163 354.122C264.603 359.442 263.883 367.352 258.563 371.792L228.693 396.672C223.373 401.112 215.463 400.392 211.023 395.072C206.583 389.742 207.303 381.832 212.623 377.402L242.493 352.512Z"></path><path id="路径 1" fill-rule="evenodd" style="fill:#A02D67" opacity="1" d="M162.92 420.638L197.908 370.67C199.657 368.172 202.466 367.648 204.923 369.368L278.647 420.99C281.104 422.711 281.572 425.529 279.823 428.028L244.835 477.996C243.085 480.494 240.283 481.01 237.825 479.289L164.102 427.667C161.644 425.947 161.463 422.719 162.92 420.638Z"></path><path id="路径 2" fill-rule="evenodd" style="fill:#A02D67" opacity="1" d="M162.92 420.638L197.908 370.67C199.657 368.172 202.466 367.648 204.923 369.368L278.647 420.99C281.104 422.711 281.572 425.529 279.823 428.028L244.835 477.996C243.085 480.494 240.283 481.01 237.825 479.289L164.102 427.667C161.644 425.947 161.463 422.719 162.92 420.638Z"></path><path id="路径 3" fill-rule="evenodd" style="fill:#D04C83" opacity="1" d="M162.92 420.638L194.994 374.831C196.743 372.333 199.546 371.817 202.003 373.538L275.727 425.16C278.185 426.88 278.659 429.691 276.909 432.189L244.835 477.996C243.085 480.494 240.283 481.01 237.825 479.289L164.102 427.667C161.644 425.947 161.463 422.719 162.92 420.638Z"></path><path id="路径 4" fill-rule="evenodd" style="fill:#301196" opacity="1" d="M281.87,429.463l-34.988,49.968c-2.329,3.326 -7.238,4.235 -10.515,1.94l-73.723,-51.622c-3.277,-2.294 -4.102,-7.218 -1.773,-10.543l34.988,-49.969c2.334,-3.334 7.243,-4.242 10.52,-1.948l73.724,51.622c3.276,2.294 4.101,7.218 1.767,10.552zM165.557,425.588l73.724,51.622c1.229,0.86 2.633,0.598 3.505,-0.647l34.988,-49.968c0.878,-1.253 0.644,-2.662 -0.585,-3.523l-73.724,-51.622c-1.229,-0.86 -2.633,-0.598 -3.51,0.655l-34.988,49.969c-0.872,1.245 -0.638,2.654 0.59,3.514z"></path><path id="路径 5" fill-rule="evenodd" style="fill:#D86097" opacity="1" d="M239.575 476.791L165.851 425.169C165.032 424.595 164.798 423.186 165.377 422.359L197.451 376.552C198.036 375.716 199.435 375.463 200.254 376.036L273.978 427.658C274.797 428.232 275.037 429.633 274.452 430.468L242.377 476.275C241.798 477.103 240.394 477.365 239.575 476.791Z"></path><path id="路径 6" fill-rule="evenodd" style="fill:#D04C83" opacity="1" d="M176.942 418.046L191.523 397.223C193.272 394.725 196.075 394.209 198.532 395.93L255.873 436.08C258.33 437.801 258.804 440.611 257.055 443.109L242.475 463.932C240.725 466.431 237.923 466.946 235.465 465.226L178.124 425.075C175.667 423.354 175.486 420.127 176.942 418.046Z"></path><path id="路径 7" fill-rule="evenodd" style="fill:#D86097" opacity="1" d="M190.689 424.566L231.646 453.245L230.189 455.326L189.232 426.647L190.689 424.566Z"></path><path id="路径 8" fill-rule="evenodd" style="fill:#723FDB" opacity="1" d="M240.986,444.265c-3.212,4.587 -9.519,5.75 -14.025,2.595l-28.67,-20.075c-4.505,-3.155 -5.57,-9.48 -2.358,-14.067c3.206,-4.579 9.513,-5.741 14.019,-2.587l28.67,20.076c4.505,3.154 5.57,9.479 2.364,14.058zM201.205,422.623l28.67,20.076c2.457,1.72 5.266,1.196 7.015,-1.302c1.75,-2.498 1.276,-5.308 -1.182,-7.029l-28.67,-20.075c-2.457,-1.721 -5.26,-1.205 -7.01,1.293c-1.749,2.498 -1.281,5.317 1.177,7.037z"></path><path id="路径 9" fill-rule="evenodd" style="fill:#4F2AB5" opacity="1" d="M197.982 414.151C200.31 410.825 205.219 409.916 208.496 412.211L237.166 432.286C240.443 434.58 241.268 439.504 238.939 442.83C236.605 446.164 231.696 447.072 228.419 444.778L199.749 424.703C196.472 422.408 195.647 417.485 197.982 414.151Z"></path><path id="路径 10" fill-rule="evenodd" style="fill:#6ED6AB" opacity="1" d="M226.652 434.226C228.981 430.9 233.89 429.991 237.166 432.286C240.443 434.58 241.268 439.504 238.939 442.83C236.605 446.164 231.696 447.072 228.419 444.778C225.142 442.484 224.317 437.56 226.652 434.226Z"></path><path id="路径 11" fill-rule="evenodd" style="fill:#EDC35B" opacity="1" d="M197.982 414.151C200.31 410.825 205.219 409.916 208.496 412.211C211.772 414.505 212.598 419.429 210.269 422.754C207.934 426.088 203.025 426.997 199.749 424.703C196.472 422.408 195.647 417.485 197.982 414.151Z"></path><path id="路径 12" fill-rule="evenodd" style="fill:#A02D67" opacity="1" d="M168.474,421.423c0.878,-1.254 2.276,-1.507 3.505,-0.647c1.229,0.86 1.468,2.261 0.591,3.515c-0.872,1.245 -2.276,1.507 -3.505,0.646c-1.229,-0.86 -1.463,-2.269 -0.591,-3.514zM238.102,470.177c0.878,-1.254 2.276,-1.507 3.505,-0.647c1.229,0.86 1.468,2.261 0.591,3.515c-0.872,1.245 -2.276,1.507 -3.505,0.646c-1.229,-0.86 -1.463,-2.269 -0.591,-3.514zM197.635,379.777c0.872,-1.245 2.276,-1.507 3.505,-0.647c1.228,0.861 1.462,2.27 0.591,3.515c-0.878,1.253 -2.282,1.515 -3.511,0.655c-1.229,-0.861 -1.463,-2.27 -0.585,-3.523zM267.263,428.531c0.872,-1.245 2.276,-1.507 3.504,-0.647c1.229,0.861 1.463,2.27 0.591,3.515c-0.877,1.253 -2.281,1.515 -3.51,0.655c-1.229,-0.861 -1.463,-2.27 -0.585,-3.523zM213.737,400.367l4.651,-15.36l40.958,28.678l-12.843,9.625z"></path><path id="路径 13" fill-rule="evenodd" style="fill:#301196" opacity="1" d="M246.274,426.252l-35.633,-24.951l6.336,-20.381l46.692,32.694zM219.798,389.096l-2.967,10.339l29.49,20.648l8.7,-6.323z"></path><path id="路径 14" fill-rule="evenodd" style="fill:#301196" opacity="1" d="M221.302 380.845L262.26 409.524L259.346 413.685L218.388 385.007L221.302 380.845Z"></path><path id="路径 15" fill-rule="evenodd" style="fill:#301196" opacity="1" d="M269.96 399.398C267.626 402.732 262.723 403.633 259.446 401.338L232.414 382.41C231.185 381.55 229.781 381.812 228.904 383.065L227.447 385.146C226.575 386.391 225.171 386.653 223.942 385.793C222.713 384.932 222.479 383.523 223.351 382.278L224.808 380.197C227.142 376.863 232.051 375.955 235.328 378.249L262.36 397.177C263.179 397.751 264.987 397.784 265.865 396.53C266.737 395.285 266.502 393.876 265.274 393.016L242.337 376.956C241.109 376.095 240.875 374.686 241.746 373.441C242.624 372.188 244.028 371.926 245.257 372.786L268.193 388.846C271.47 391.141 272.295 396.064 269.96 399.398Z"></path><path id="路径 3" fill-rule="evenodd" style="fill:#8A6FE8" opacity="1" d="M298.591 392.538C301.401 398.908 298.521 406.348 292.161 409.178C285.791 411.997 278.341 409.117 275.511 402.747L264.501 378.298L287.841 368.698L298.591 392.538Z"></path><path id="路径 4" fill-rule="evenodd" style="fill:#8A6FE8" opacity="1" d="M281.907 417.647C281.847 424.607 276.167 430.217 269.197 430.167C262.237 430.117 256.627 424.427 256.677 417.467L256.687 390.647L282.037 381.587L281.907 417.647Z"></path><path id="路径 5" fill-rule="evenodd" style="fill:#8A6FE8" opacity="1" d="M258.807 412.811C257.217 419.591 250.427 423.801 243.637 422.201C236.857 420.611 232.647 413.821 234.247 407.041L242.707 371.281L267.127 377.691L258.807 412.811Z"></path><path id="路径 6" fill-rule="evenodd" fill="url(#linear_12)" opacity="1" d="M288.852 370.908C288.852 385.488 277.032 397.308 262.442 397.308C247.862 397.308 236.042 385.488 236.042 370.908C236.042 356.318 247.862 344.498 262.442 344.498C277.032 344.498 288.852 356.318 288.852 370.908Z"></path></g></g><defs><rect id="path_0" x="0" y="0" width="419" height="519" /><linearGradient id="linear_0" x1="30.020092132467923%" y1="1.6314841978435504%" x2="76.05834460509544%" y2="100.7006990363103%" gradientUnits="objectBoundingBox"><stop offset="0" stop-color="#522CD5" stop-opacity="1" /><stop offset="0.4397" stop-color="#8A6FE8" stop-opacity="1" /></linearGradient><linearGradient id="linear_1" x1="5.956924973364436%" y1="-2.4149366368325516%" x2="85.41207133384489%" y2="103.63001279672608%" gradientUnits="objectBoundingBox"><stop offset="0" stop-color="#522CD5" stop-opacity="1" /><stop offset="0.4397" stop-color="#8A6FE8" stop-opacity="1" /></linearGradient><radialGradient id="linear_2" cx="47.599999894524856%" cy="-84.338196171186%" fx="47.599999894524856%" fy="-84.338196171186%" r="0.8288538951381106" gradientTransform="translate(0.4759999989452486 -0.84338196171186) scale(0.4751530430163732 1) rotate(359.73925799999824) scale(1 1) translate(-0.4759999989452486 0.84338196171186)" ><stop offset="0.034" stop-color="#522CD5" stop-opacity="1" /><stop offset="0.9955" stop-color="#8A6FE8" stop-opacity="1" /></radialGradient><linearGradient id="linear_3" x1="68.43802082940051%" y1="1.3984935856754916%" x2="23.660041054858294%" y2="100.56083783352618%" gradientUnits="objectBoundingBox"><stop offset="0" stop-color="#522CD5" stop-opacity="1" /><stop offset="0.4397" stop-color="#8A6FE8" stop-opacity="1" /></linearGradient><linearGradient id="linear_4" x1="49.23945772223492%" y1="0.05020303383806864%" x2="49.934018618002355%" y2="99.85114485560582%" gradientUnits="objectBoundingBox"><stop offset="0" stop-color="#522CD5" stop-opacity="1" /><stop offset="0.4397" stop-color="#8A6FE8" stop-opacity="1" /></linearGradient><radialGradient id="linear_5" cx="51.813932581655834%" cy="-83.99568798583452%" fx="51.813932581655834%" fy="-83.99568798583452%" r="0.6882279038398926" gradientTransform="translate(0.5181393258165583 -0.8399568798583452) scale(0.3629409005772349 1) rotate(179.73900000000145) scale(1 1) translate(-0.5181393258165583 0.8399568798583452)" ><stop offset="0.034" stop-color="#522CD5" stop-opacity="1" /><stop offset="0.9955" stop-color="#8A6FE8" stop-opacity="1" /></radialGradient><radialGradient id="linear_6" cx="61.7090932332292%" cy="30.918896233080716%" fx="61.7090932332292%" fy="30.918896233080716%" r="0.5022969720998681" gradientTransform="translate(0.617090932332292 0.30918896233080717) scale(1.0087398901282243 1) rotate(179.73900000000145) scale(1 1) translate(-0.617090932332292 -0.30918896233080717)" ><stop offset="0.4744" stop-color="#A08BE8" stop-opacity="1" /><stop offset="0.8618" stop-color="#8065E0" stop-opacity="1" /></radialGradient><radialGradient id="linear_7" cx="96.54076384922962%" cy="-30.765889860728844%" fx="96.54076384922962%" fy="-30.765889860728844%" r="0.9240633111117245" gradientTransform="translate(0.9654076384922962 -0.30765889860728846) scale(0.4742043524693281 1) rotate(179.73899999999867) scale(1 1) translate(-0.9654076384922962 0.30765889860728846)" ><stop offset="0.0933" stop-color="#E1DFDD" stop-opacity="1" /><stop offset="0.6573" stop-color="#FFFFFF" stop-opacity="1" /></radialGradient><linearGradient id="linear_8" x1="50.00278601820589%" y1="0.006434684378721307%" x2="51.00278601820589%" y2="100.00357482465485%" gradientUnits="objectBoundingBox"><stop offset="0.3344" stop-color="#9780E6" stop-opacity="1" /><stop offset="0.8488" stop-color="#8A6FE8" stop-opacity="1" /></linearGradient><radialGradient id="linear_9" cx="40.763686598350716%" cy="33.17620348635856%" fx="40.763686598350716%" fy="33.17620348635856%" r="0.5001019737114071" gradientTransform="translate(0.4076368659835072 0.33176203486358563) scale(0.9999961519369224 1) rotate(359.73925800000103) scale(1 1) translate(-0.4076368659835072 -0.33176203486358563)" ><stop offset="0" stop-color="#8065E0" stop-opacity="1" /><stop offset="1" stop-color="#512BD4" stop-opacity="1" /></radialGradient><rect id="path_1" x="0" y="0" width="123" height="119" /><radialGradient id="linear_10" cx="48.86514696469893%" cy="30.182926829268336%" fx="48.86514696469893%" fy="30.182926829268336%" r="0.5001192987505823" gradientTransform="translate(0.4886514696469893 0.30182926829268336) scale(0.9999886382142301 1) rotate(360) scale(1 1) translate(-0.4886514696469893 -0.30182926829268336)" ><stop offset="0" stop-color="#8065E0" stop-opacity="1" /><stop offset="1" stop-color="#512BD4" stop-opacity="1" /></radialGradient><radialGradient id="linear_11" cx="41.77134151467713%" cy="38.00838672332705%" fx="41.77134151467713%" fy="38.00838672332705%" r="0.5359651161913144" gradientTransform="translate(0.4177134151467713 0.3800838672332705) scale(0.5447260101644797 1) rotate(327.7975) scale(1 1) translate(-0.4177134151467713 -0.3800838672332705)" ><stop offset="0" stop-color="#8065E0" stop-opacity="1" /><stop offset="1" stop-color="#512BD4" stop-opacity="1" /></radialGradient><rect id="path_2" x="0" y="0" width="101" height="17" /><radialGradient id="linear_12" cx="50.43079778068136%" cy="26.519126728184773%" fx="50.43079778068136%" fy="26.519126728184773%" r="0.5000246170160392" gradientTransform="translate(0.5043079778068136 0.2651912672818477) scale(0.999986744683672 1) rotate(360) scale(1 1) translate(-0.5043079778068136 -0.2651912672818477)" ><stop offset="0" stop-color="#8065E0" stop-opacity="1" /><stop offset="1" stop-color="#512BD4" stop-opacity="1" /></radialGradient></defs></svg>