<svg width="456" height="456" xmlns="http://www.w3.org/2000/svg" version="1.1" xml:space="preserve" clip-rule="evenodd">
 <defs>
  <filter id="svg_5_blur" x="-50%" y="-50%" width="200%" height="200%">
   <feGaussianBlur in="SourceGraphic" stdDeviation="0.8"/>
  </filter>
 </defs>
 <g>
  <title>Layer 1</title>
  <g stroke="null" id="svg_3">
   <text stroke="null" fill="#d0d3f2" x="117.40728" y="303.27141" id="svg_5" font-size="250" font-family="'Fira Code'" text-anchor="start" xml:space="preserve" stroke-width="0" font-weight="bold" filter="url(#svg_5_blur)" font-style="italic" transform="matrix(1.42497 0 0 1.13607 -87.4585 -21.7653)">V</text>
   <g stroke="null" id="svg_1">
    <path stroke="null" id="svg_2" d="m252.37274,91.87688l3.13315,0a3.13315,2.25539 0 0 1 3.13315,2.25539l0,23.73119a3.13315,2.25539 0 0 1 -3.13315,2.25539l-3.13315,0a3.13315,2.25539 0 0 1 -3.13315,-2.25539l0,-23.73119a3.13315,2.25539 0 0 1 3.13315,-2.25539zm-21.79733,6.27674l3.13315,0a3.13315,2.25539 0 0 1 3.13315,2.25539l0,11.1777a3.13315,2.25539 0 0 1 -3.13315,2.25539l-3.13315,0a3.13315,2.25539 0 0 1 -3.13315,-2.25539l0,-11.1777a3.13315,2.25539 0 0 1 3.13315,-2.25539zm43.59153,0l3.13315,0a3.13315,2.25539 0 0 1 3.13315,2.25539l0,11.1777a3.13315,2.25539 0 0 1 -3.13315,2.25539l-3.13315,0a3.13315,2.25539 0 0 1 -3.13315,-2.25539l0,-11.1777a3.13315,2.25539 0 0 1 3.13315,-2.25539zm-41.53305,39.85721l0.00626,-0.01127a60.90845,43.84473 0 0 0 19.86731,2.36816c30.39156,0 54.83014,-15.74261 54.83014,-34.95851s-24.43858,-34.95851 -54.83014,-34.95851s-54.83014,15.74261 -54.83014,34.95851c0,9.95077 6.56395,19.24973 17.93102,25.85125l-0.01566,0.01353l0.6517,13.08125l16.38951,-6.3444l0,-0.00001zm-26.24014,-3.54998c-11.48926,-7.69087 -18.11587,-18.01378 -18.11587,-29.05164c0,-23.13351 28.86572,-41.72466 64.22959,-41.72466s64.22959,18.59116 64.22959,41.72466s-28.86572,41.72466 -64.22959,41.72466c-6.46056,0 -12.79265,-0.62023 -18.84277,-1.82461l-21.49968,8.42387a3.13315,2.25539 0 0 1 -4.62767,-1.87648l-1.1436,-17.3958z" fill="#000000" p-id="4024"/>
   </g>
  </g>
 </g>
</svg>